Coordinates
version=1
nRows=10
nColumns=40
inDegrees=yes

Units are S.I. units (second, meters, Newtons, ...)
If the header above contains a line with 'inDegrees', this indicates whether rotational values are in degrees (yes) or radians (no).

endheader
time	pelvis_tilt	pelvis_list	pelvis_rotation	pelvis_tx	pelvis_ty	pelvis_tz	hip_flexion_r	hip_adduction_r	hip_rotation_r	knee_angle_r	knee_angle_r_beta	ankle_angle_r	subtalar_angle_r	mtp_angle_r	hip_flexion_l	hip_adduction_l	hip_rotation_l	knee_angle_l	knee_angle_l_beta	ankle_angle_l	subtalar_angle_l	mtp_angle_l	lumbar_extension	lumbar_bending	lumbar_rotation	arm_flex_r	arm_add_r	arm_rot_r	elbow_flex_r	pro_sup_r	wrist_flex_r	wrist_dev_r	arm_flex_l	arm_add_l	arm_rot_l	elbow_flex_l	pro_sup_l	wrist_flex_l	wrist_dev_l
     11.65000000	    -26.83063952	      5.44262804	     -1.42734438	      0.07423543	      1.27601526	      0.00801247	     89.46867984	     -1.80275187	     14.83881735	    108.21542407	      1.88871545	    -12.15077116	    -12.28322760	      0.00000000	     65.94996892	     -4.32006534	     -7.53914498	     45.51294553	      0.79435075	    -24.62636791	    -18.15645799	      0.00000000	    -27.04669077	     -8.64109322	      3.74636458	     64.00949299	      7.30217911	    -52.41431443	     35.66031105	     75.91585192	      0.00000000	      0.00000000	     61.95782715	      4.87448840	    -15.74054327	     28.95933454	      3.52075045	      0.00000000	      0.00000000
     11.66700000	    -27.16595729	      5.55217377	     -2.16277429	      0.07414346	      1.27518267	      0.00906869	     93.14759899	     -0.65385349	     15.11188270	    110.06680393	      1.92102813	     -9.95961218	    -12.16235451	      0.00000000	     62.93701365	     -4.64504557	     -8.25632778	     43.00579821	      0.75059278	    -25.54889988	    -17.77416367	      0.00000000	    -26.58163368	     -8.63953014	      4.21602573	     64.18084459	      7.60335519	    -52.41826790	     35.32184770	     75.77416636	      0.00000000	      0.00000000	     61.69192069	      4.48542510	    -15.72994483	     28.71564912	      3.73604598	      0.00000000	      0.00000000
     11.68300000	    -27.52405878	      5.92104189	     -2.68775553	      0.07417162	      1.27434274	      0.00964092	     96.67076186	      0.38587421	     15.55953867	    110.91406292	      1.93581558	     -8.10113150	    -11.57578846	      0.00000000	     60.43327473	     -4.49667522	     -8.57948536	     41.65295302	      0.72698117	    -26.03453107	    -18.12676001	      0.00000000	    -26.12092025	     -8.86316785	      4.48239545	     64.31883009	      7.86444846	    -52.77232951	     35.06943731	     75.59714902	      0.00000000	      0.00000000	     61.51981313	      4.00094597	    -14.91711375	     28.23803580	      3.32931711	      0.00000000	      0.00000000
     11.70000000	    -27.64544551	      5.86751325	     -2.93859644	      0.07444797	      1.27393692	      0.00982613	     99.20252695	      1.07484139	     15.17483524	    110.59018052	      1.93016277	     -6.52656066	    -11.97970519	      0.00000000	     58.62284499	     -4.55491258	     -8.55273889	     41.82300860	      0.72994920	    -26.27862283	    -18.12684756	      0.00000000	    -25.95143017	     -8.66573119	      4.61643127	     64.43274545	      8.04980100	    -52.82772586	     34.80232911	     75.33766860	      0.00000000	      0.00000000	     61.33483059	      3.72652001	    -14.87697658	     28.01008379	      3.80914617	      0.00000000	      0.00000000
     11.71700000	    -27.72441030	      5.50103871	     -2.99915320	      0.07479153	      1.27353143	      0.00942876	    100.99840000	      1.49816963	     14.31647437	    108.90841676	      1.90081046	     -5.77671051	    -12.46317646	      0.00000000	     57.91375650	     -4.81563364	     -8.44728712	     43.99195837	      0.76780452	    -26.36015549	    -19.33331180	      0.00000000	    -25.81413344	     -8.20493549	      4.77984914	     64.52071943	      8.43147080	    -53.50682832	     34.75077520	     74.15245720	      0.00000000	      0.00000000	     61.21965258	      3.45257190	    -14.27739089	     27.82488514	      3.17601475	      0.00000000	      0.00000000
     11.73300000	    -27.59255528	      4.90512113	     -2.89478421	      0.07529808	      1.27360848	      0.00848384	    101.75474439	      1.66183760	     13.24576776	    106.00521671	      1.85014006	     -5.34686709	    -12.86721867	      0.00000000	     57.86904207	     -5.19473622	     -8.07178329	     47.74146008	      0.83324567	    -26.08018576	    -20.88196498	      0.00000000	    -25.93936053	     -7.55018121	      4.89667873	     64.56886990	      8.66964796	    -54.01611801	     34.84880590	     73.85578725	      0.00000000	      0.00000000	     61.14432678	      3.31949733	    -13.89628901	     27.73476516	      3.62713296	      0.00000000	      0.00000000
     11.75000000	    -27.43288290	      4.55198702	     -2.48865440	      0.07571564	      1.27378482	      0.00752955	    101.60150852	      1.41831725	     12.46800300	    102.31522736	      1.78573759	     -5.62201936	    -13.24828062	      0.00000000	     58.46607323	     -5.26102430	     -7.48744389	     52.23683640	      0.91170479	    -25.94746006	    -22.22567302	      0.00000000	    -26.10812965	     -7.10863495	      4.61775304	     64.62032469	      8.85382333	    -54.47933656	     34.89211563	     73.71969487	      0.00000000	      0.00000000	     61.19014553	      3.21931275	    -13.60931819	     27.64066652	      3.56711638	      0.00000000	      0.00000000
     11.76700000	    -27.47702929	      4.32733042	     -1.98140856	      0.07593899	      1.27366751	      0.00684469	    100.55669933	      1.01391728	     11.95279552	     97.70181087	      1.70521828	     -6.17361617	    -13.44211845	      0.00000000	     60.01298698	     -5.18332117	     -6.46658960	     57.43795842	      1.00248149	    -26.28590232	    -23.13538606	      0.00000000	    -26.03226075	     -6.78699901	      4.14802206	     64.69194319	      8.96791988	    -54.82081750	     34.76376060	     73.63400416	      0.00000000	      0.00000000	     61.19462940	      3.18675393	    -13.48992505	     27.72710100	      3.36019522	      0.00000000	      0.00000000
     11.78300000	    -27.23914786	      4.55536862	     -1.20901481	      0.07634903	      1.27388750	      0.00585031	     98.39919978	      0.17308310	     12.07867952	     92.29911554	      1.61092346	     -7.32922206	    -12.80730671	      0.00000000	     61.80740035	     -4.55112723	     -5.47949172	     63.27554904	      1.10436667	    -26.40188813	    -23.61308990	      0.00000000	    -26.26700671	     -6.86247320	      3.18343649	     64.76565315	      8.94033678	    -54.84943037	     34.50947400	     73.69951736	      0.00000000	      0.00000000	     61.37176607	      3.20669369	    -13.62730295	     27.71004214	      3.19145521	      0.00000000	      0.00000000
     11.80000000	    -27.14770186	      4.74302508	     -0.27390829	      0.07635600	      1.27406815	      0.00489812	     95.74638675	     -0.96479018	     11.93379218	     86.62928144	      1.51196619	     -8.53744555	    -12.36329048	      0.00000000	     64.17772911	     -3.89043332	     -4.45680528	     69.33157802	      1.21006431	    -26.25571626	    -23.80793992	      0.00000000	    -26.33556069	     -6.91203789	      2.18234526	     64.75288325	      8.87547529	    -54.88168615	     34.32415384	     73.75827826	      0.00000000	      0.00000000	     61.51149778	      3.27659314	    -13.70937002	     27.74613828	      3.12176602	      0.00000000	      0.00000000
